<svg id="Layer_1" data-name="Layer 1" xmlns="http://www.w3.org/2000/svg" viewBox="0 0 173.71 262.02"><defs><style>.cls-1{fill:#6fccdd;}</style></defs><path class="cls-1" d="M88.85,112.53c59.91,14,80.15,37.75,80.15,73.76C169,225.61,138.8,262,89.26,262Z" transform="translate(-0.04 0)"/><path d="M0,185.89H33c1.11,22.41,22.42,45.19,56.22,45.19,32.71,0,51.07-21.31,51.07-43.72,0-24.62-22.41-35.64-43.72-41.15l-32.7-8.09c-53.64-12.85-62.09-44.45-62.09-65C1.82,29.39,41.13,0,85.22,0c44.46,0,80.1,28.3,80.1,73.49h-33c0-25.35-21-42.63-48.14-42.63-25.35,0-48.87,16.91-48.87,41.9,0,8.81,2.94,26.45,36.75,35.27l33,8.86c43,11.39,68.71,33.43,68.71,69.44,0,39.32-32,75.69-84.51,75.69C36,262,.37,225.24,0,185.89Z" transform="translate(-0.04 0)"/><rect x="85.32" y="130.96" width="10.96" height="109.97"/></svg>