<svg id="Layer_1" data-name="Layer 1" xmlns="http://www.w3.org/2000/svg" xmlns:xlink="http://www.w3.org/1999/xlink" viewBox="0 0 792 537.32"><defs><style>.cls-1{fill:#73c5d8;}.cls-2{fill:#fff;}.cls-3{fill:url(#linear-gradient);}.cls-4{fill:url(#linear-gradient-2);}.cls-5{fill:url(#linear-gradient-3);}.cls-6{fill:url(#linear-gradient-4);}.cls-7{fill:url(#linear-gradient-5);}.cls-8{fill:url(#linear-gradient-6);}.cls-9{fill:url(#linear-gradient-7);}.cls-10{fill:url(#linear-gradient-8);}.cls-11{fill:url(#linear-gradient-9);}.cls-12{fill:url(#linear-gradient-10);}.cls-13{fill:url(#linear-gradient-11);}.cls-14{fill:url(#linear-gradient-12);}.cls-15{fill:url(#linear-gradient-13);}.cls-16{fill:url(#linear-gradient-14);}.cls-17{fill:url(#linear-gradient-15);}.cls-18{fill:url(#linear-gradient-16);}.cls-19{fill:url(#linear-gradient-17);}.cls-20{fill:url(#linear-gradient-18);}.cls-21{fill:url(#linear-gradient-19);}.cls-22{fill:url(#linear-gradient-20);}.cls-23{fill:url(#linear-gradient-21);}.cls-24{fill:url(#linear-gradient-22);}.cls-25{fill:url(#linear-gradient-23);}.cls-26{fill:url(#linear-gradient-24);}.cls-27{fill:url(#linear-gradient-25);}.cls-28{fill:url(#linear-gradient-26);}.cls-29{fill:url(#linear-gradient-27);}.cls-30{fill:url(#linear-gradient-28);}.cls-31{fill:url(#linear-gradient-29);}.cls-32{fill:url(#linear-gradient-30);}.cls-33{fill:url(#linear-gradient-31);}.cls-34{fill:url(#linear-gradient-32);}.cls-35{fill:url(#linear-gradient-33);}.cls-36{fill:url(#linear-gradient-34);}.cls-37{fill:url(#linear-gradient-35);}.cls-38{fill:url(#linear-gradient-36);}.cls-39{fill:url(#linear-gradient-37);}.cls-40{fill:url(#linear-gradient-38);}.cls-41{fill:url(#linear-gradient-39);}</style><linearGradient id="linear-gradient" x1="29.22" y1="141.31" x2="207.82" y2="141.31" gradientUnits="userSpaceOnUse"><stop offset="0" stop-color="#c2e7f0"/><stop offset="0.22" stop-color="#8ed6ee"/><stop offset="0.39" stop-color="#86d4eb"/><stop offset="0.57" stop-color="#70cfee"/><stop offset="0.76" stop-color="#43bcec"/><stop offset="1" stop-color="#3ba1da"/></linearGradient><linearGradient id="linear-gradient-2" x1="28.69" y1="141.43" x2="208.35" y2="141.43" xlink:href="#linear-gradient"/><linearGradient id="linear-gradient-3" x1="254.37" y1="141.31" x2="432.97" y2="141.31" xlink:href="#linear-gradient"/><linearGradient id="linear-gradient-4" x1="253.83" y1="141.43" x2="433.49" y2="141.43" xlink:href="#linear-gradient"/><linearGradient id="linear-gradient-5" x1="192.59" y1="147.41" x2="268.2" y2="147.41" xlink:href="#linear-gradient"/><linearGradient id="linear-gradient-6" x1="192.05" y1="147.41" x2="268.73" y2="147.41" xlink:href="#linear-gradient"/><linearGradient id="linear-gradient-7" x1="533.01" y1="203.07" x2="547.77" y2="203.07" xlink:href="#linear-gradient"/><linearGradient id="linear-gradient-8" x1="532.48" y1="203.07" x2="548.31" y2="203.07" xlink:href="#linear-gradient"/><linearGradient id="linear-gradient-9" x1="621.59" y1="203.07" x2="636.36" y2="203.07" xlink:href="#linear-gradient"/><linearGradient id="linear-gradient-10" x1="621.06" y1="203.07" x2="636.89" y2="203.07" xlink:href="#linear-gradient"/><linearGradient id="linear-gradient-11" x1="160.3" y1="425.07" x2="182.37" y2="425.07" xlink:href="#linear-gradient"/><linearGradient id="linear-gradient-12" x1="159.76" y1="425.07" x2="182.91" y2="425.07" xlink:href="#linear-gradient"/><linearGradient id="linear-gradient-13" x1="265.81" y1="425.07" x2="287.88" y2="425.07" xlink:href="#linear-gradient"/><linearGradient id="linear-gradient-14" x1="265.27" y1="425.07" x2="288.41" y2="425.07" xlink:href="#linear-gradient"/><linearGradient id="linear-gradient-15" x1="502.01" y1="110.05" x2="516.77" y2="110.05" xlink:href="#linear-gradient"/><linearGradient id="linear-gradient-16" x1="501.47" y1="110.05" x2="517.3" y2="110.05" xlink:href="#linear-gradient"/><linearGradient id="linear-gradient-17" x1="648.91" y1="110.05" x2="663.67" y2="110.05" xlink:href="#linear-gradient"/><linearGradient id="linear-gradient-18" x1="648.37" y1="110.05" x2="664.2" y2="110.05" xlink:href="#linear-gradient"/><linearGradient id="linear-gradient-19" x1="148.27" y1="370.34" x2="163.03" y2="370.34" xlink:href="#linear-gradient"/><linearGradient id="linear-gradient-20" x1="147.74" y1="370.34" x2="163.56" y2="370.34" xlink:href="#linear-gradient"/><linearGradient id="linear-gradient-21" x1="284.25" y1="370.34" x2="299.01" y2="370.34" xlink:href="#linear-gradient"/><linearGradient id="linear-gradient-22" x1="283.72" y1="370.34" x2="299.55" y2="370.34" xlink:href="#linear-gradient"/><linearGradient id="linear-gradient-23" x1="518.25" y1="139.21" x2="647.43" y2="139.21" xlink:href="#linear-gradient"/><linearGradient id="linear-gradient-24" x1="583.43" y1="176.05" x2="588.89" y2="203.51" xlink:href="#linear-gradient"/><linearGradient id="linear-gradient-25" x1="550.93" y1="189.78" x2="621.39" y2="189.78" xlink:href="#linear-gradient"/><linearGradient id="linear-gradient-26" x1="152.98" y1="382.42" x2="295.53" y2="382.42" xlink:href="#linear-gradient"/><linearGradient id="linear-gradient-27" x1="152.45" y1="382.42" x2="296.06" y2="382.42" xlink:href="#linear-gradient"/><linearGradient id="linear-gradient-28" x1="224.18" y1="416.14" x2="225.26" y2="431.02" xlink:href="#linear-gradient"/><linearGradient id="linear-gradient-29" x1="177.26" y1="423.58" x2="272.18" y2="423.58" xlink:href="#linear-gradient"/><linearGradient id="linear-gradient-30" x1="511.83" y1="440.69" x2="554.32" y2="440.69" xlink:href="#linear-gradient"/><linearGradient id="linear-gradient-31" x1="510.65" y1="440.08" x2="555.25" y2="440.08" xlink:href="#linear-gradient"/><linearGradient id="linear-gradient-32" x1="604.23" y1="440.29" x2="646.73" y2="440.29" xlink:href="#linear-gradient"/><linearGradient id="linear-gradient-33" x1="603.31" y1="439.68" x2="647.91" y2="439.68" xlink:href="#linear-gradient"/><linearGradient id="linear-gradient-34" x1="518.1" y1="372.71" x2="641.5" y2="372.71" xlink:href="#linear-gradient"/><linearGradient id="linear-gradient-35" x1="517.59" y1="372.71" x2="642.01" y2="372.71" xlink:href="#linear-gradient"/><linearGradient id="linear-gradient-36" x1="554.8" y1="457.39" x2="605.39" y2="457.39" xlink:href="#linear-gradient"/><linearGradient id="linear-gradient-37" x1="554.29" y1="457.39" x2="605.9" y2="457.39" xlink:href="#linear-gradient"/><linearGradient id="linear-gradient-38" x1="561.19" y1="445.41" x2="600.2" y2="445.41" xlink:href="#linear-gradient"/><linearGradient id="linear-gradient-39" x1="560.68" y1="445.41" x2="600.71" y2="445.41" xlink:href="#linear-gradient"/></defs><path class="cls-1" d="M184.42,106.93l39.3,10v12.21l-40.61-19.56C181.41,108.43,181.66,106.68,184.42,106.93Z"/><path class="cls-2" d="M224.26,130l-41.38-19.92c-1.12-.78-1.58-1.75-1.28-2.57.15-.41.73-1.34,2.86-1.14l.09,0,39.71,10.15ZM183.9,107.44c-.82,0-1.22.24-1.3.47s.11.79.82,1.28l39.77,19.15V117.4l-38.86-9.94Z"/><path class="cls-1" d="M275.39,106.93l-39.31,10v12.21l40.62-19.56C278.4,108.43,278.15,106.68,275.39,106.93Z"/><path class="cls-2" d="M235.55,130V116.57l39.79-10.17c2.14-.2,2.72.73,2.87,1.14.3.82-.16,1.79-1.2,2.52Zm1.07-12.63v10.94l39.85-19.2c.63-.44.84-1,.74-1.23s-.62-.55-1.73-.45Z"/><path class="cls-1" d="M224.68,117s1.7-19.89,4.42-19.89,5.78,19,5.78,19Z"/><path class="cls-2" d="M224.1,117.57l.05-.63c.52-6.13,2.06-20.38,4.95-20.38s5.37,13.59,6.31,19.43l.09.57Zm5-19.95c-1.16,0-2.93,8.71-3.83,18.78l9-.8C232.65,105.8,230.31,97.62,229.1,97.62Z"/><path class="cls-3" d="M34.46,106.18l173.36,31.5v38.83L32.38,114.26C27.13,111.44,28.82,105.43,34.46,106.18Z"/><path class="cls-4" d="M208.35,177.27,32.2,114.76c-3.16-1.69-3.92-4.33-3.32-6.21.69-2.13,2.9-3.27,5.65-2.9h0l173.8,31.57ZM33.54,106.65a3.55,3.55,0,0,0-3.64,2.22c-.47,1.47.19,3.55,2.73,4.92l174.65,62V138.12L34.38,106.71A6.15,6.15,0,0,0,33.54,106.65Z"/><path class="cls-5" d="M427.73,106.18l-173.36,31.5v38.83L429.8,114.26C435.05,111.44,433.36,105.43,427.73,106.18Z"/><path class="cls-6" d="M253.83,177.27v-40l173.83-31.58c2.74-.36,5,.78,5.64,2.9.61,1.88-.16,4.52-3.25,6.18Zm1.07-39.15v37.64l174.72-62c2.48-1.33,3.14-3.41,2.67-4.88s-2.28-2.45-4.48-2.16Z"/><circle class="cls-1" cx="298.66" cy="168.9" r="17.95"/><path class="cls-2" d="M298.66,187.38a18.49,18.49,0,1,1,18.48-18.48A18.5,18.5,0,0,1,298.66,187.38Zm0-35.9a17.42,17.42,0,1,0,17.42,17.42A17.44,17.44,0,0,0,298.66,151.48Z"/><circle class="cls-2" cx="298.66" cy="169.44" r="13.6"/><circle class="cls-1" cx="164.3" cy="168.9" r="17.95"/><path class="cls-2" d="M164.3,187.38a18.49,18.49,0,1,1,18.48-18.48A18.5,18.5,0,0,1,164.3,187.38Zm0-35.9a17.42,17.42,0,1,0,17.42,17.42A17.44,17.44,0,0,0,164.3,151.48Z"/><circle class="cls-2" cx="164.3" cy="169.44" r="13.6"/><circle class="cls-7" cx="230.39" cy="147.41" r="37.81"/><path class="cls-8" d="M230.39,185.75a38.34,38.34,0,1,1,38.34-38.34A38.38,38.38,0,0,1,230.39,185.75Zm0-75.61a37.27,37.27,0,1,0,37.28,37.27A37.31,37.31,0,0,0,230.39,110.14Z"/><rect class="cls-9" x="533.01" y="180.18" width="14.76" height="45.77" rx="3.8"/><path class="cls-10" d="M540.39,226.48a7.92,7.92,0,0,1-7.91-7.91v-31a7.92,7.92,0,0,1,15.83,0v31A7.92,7.92,0,0,1,540.39,226.48Zm0-45.76a6.85,6.85,0,0,0-6.85,6.84v31a6.85,6.85,0,0,0,13.7,0v-31A6.85,6.85,0,0,0,540.39,180.72Z"/><rect class="cls-11" x="621.59" y="180.18" width="14.76" height="45.77" rx="3.8"/><path class="cls-12" d="M629,226.48a7.92,7.92,0,0,1-7.91-7.91v-31a7.92,7.92,0,0,1,15.83,0v31A7.92,7.92,0,0,1,629,226.48Zm0-45.76a6.86,6.86,0,0,0-6.85,6.84v31a6.85,6.85,0,1,0,13.7,0v-31A6.85,6.85,0,0,0,629,180.72Z"/><rect class="cls-13" x="160.3" y="402.18" width="22.07" height="45.77" rx="5.68"/><path class="cls-14" d="M175,448.48h-7.31a7.93,7.93,0,0,1-7.92-7.91v-31a7.93,7.93,0,0,1,7.92-7.91H175a7.92,7.92,0,0,1,7.92,7.91v31A7.92,7.92,0,0,1,175,448.48Zm-7.31-45.76a6.85,6.85,0,0,0-6.85,6.84v31a6.85,6.85,0,0,0,6.85,6.85H175a6.85,6.85,0,0,0,6.85-6.85v-31a6.85,6.85,0,0,0-6.85-6.84Z"/><rect class="cls-15" x="265.81" y="402.18" width="22.07" height="45.77" rx="5.68"/><path class="cls-16" d="M280.5,448.48h-7.31a7.92,7.92,0,0,1-7.92-7.91v-31a7.92,7.92,0,0,1,7.92-7.91h7.31a7.92,7.92,0,0,1,7.91,7.91v31A7.92,7.92,0,0,1,280.5,448.48Zm-7.31-45.76a6.85,6.85,0,0,0-6.85,6.84v31a6.85,6.85,0,0,0,6.85,6.85h7.31a6.85,6.85,0,0,0,6.85-6.85v-31a6.85,6.85,0,0,0-6.85-6.84Z"/><path class="cls-2" d="M254.63,141a5.9,5.9,0,0,1-2,2.57c-2.84,2.08-10,6.27-21.44,6.27-15.06,0-20.59-4.63-22.24-6.57a5.64,5.64,0,0,1-.82-1.29l-.07-.15a6,6,0,0,1,6.42-8.47,91.91,91.91,0,0,0,17.8,1.25A109.48,109.48,0,0,0,248,132.87a6,6,0,0,1,6.64,8.15Z"/><path class="cls-1" d="M231.21,150.39c-15.24,0-20.92-4.72-22.65-6.75a6.63,6.63,0,0,1-.89-1.41l-.07-.16a6.53,6.53,0,0,1,7-9.21,91,91,0,0,0,17.69,1.23,108,108,0,0,0,15.61-1.74,6.54,6.54,0,0,1,7.24,8.87h0A6.41,6.41,0,0,1,253,144C250.35,145.94,243,150.39,231.21,150.39Zm-17.72-16.56a5.48,5.48,0,0,0-4.93,7.79l.07.16a5.12,5.12,0,0,0,.74,1.16c1.64,1.92,7,6.38,21.84,6.38,11.46,0,18.59-4.3,21.13-6.16a5.38,5.38,0,0,0,1.8-2.34h0a5.46,5.46,0,0,0-6-7.42,110.44,110.44,0,0,1-15.77,1.76,91.52,91.52,0,0,1-17.9-1.25A5.84,5.84,0,0,0,213.49,133.83Z"/><rect class="cls-17" x="502.01" y="87.17" width="14.76" height="45.77" rx="3.8"/><path class="cls-18" d="M509.39,133.47a7.92,7.92,0,0,1-7.92-7.91v-31a7.92,7.92,0,0,1,15.83,0v31A7.92,7.92,0,0,1,509.39,133.47Zm0-45.77a6.86,6.86,0,0,0-6.85,6.85v31a6.85,6.85,0,0,0,13.7,0v-31A6.87,6.87,0,0,0,509.39,87.7Z"/><rect class="cls-19" x="648.91" y="87.17" width="14.76" height="45.77" rx="3.8"/><path class="cls-20" d="M656.29,133.47a7.92,7.92,0,0,1-7.92-7.91v-31a7.92,7.92,0,0,1,15.83,0v31A7.92,7.92,0,0,1,656.29,133.47Zm0-45.77a6.86,6.86,0,0,0-6.85,6.85v31a6.85,6.85,0,0,0,13.7,0v-31A6.87,6.87,0,0,0,656.29,87.7Z"/><rect class="cls-21" x="148.27" y="359.5" width="14.76" height="21.68" rx="3.8"/><path class="cls-22" d="M155.65,381.72a7.92,7.92,0,0,1-7.91-7.92v-6.91a7.91,7.91,0,1,1,15.82,0v6.91A7.92,7.92,0,0,1,155.65,381.72Zm0-21.68a6.85,6.85,0,0,0-6.85,6.85v6.91a6.85,6.85,0,1,0,13.7,0v-6.91A6.85,6.85,0,0,0,155.65,360Z"/><rect class="cls-23" x="284.25" y="359.5" width="14.76" height="21.68" rx="3.8"/><path class="cls-24" d="M291.63,381.72a7.92,7.92,0,0,1-7.91-7.92v-6.91a7.92,7.92,0,1,1,15.83,0v6.91A7.93,7.93,0,0,1,291.63,381.72Zm0-21.68a6.86,6.86,0,0,0-6.85,6.85v6.91a6.85,6.85,0,1,0,13.7,0v-6.91A6.85,6.85,0,0,0,291.63,360Z"/><rect class="cls-25" x="518.25" y="65.03" width="129.18" height="148.38" rx="14.2"/><rect class="cls-26" x="551.46" y="181.66" width="69.39" height="16.24" rx="4.18"/><path class="cls-27" d="M612.73,198.43H559.58a8.65,8.65,0,0,1,0-17.3h53.15a8.65,8.65,0,1,1,0,17.3Zm-53.15-16.24a7.59,7.59,0,0,0,0,15.18h53.15a7.59,7.59,0,1,0,0-15.18Z"/><circle class="cls-2" cx="535.96" cy="189.78" r="8.12"/><path class="cls-1" d="M536,198.43a8.65,8.65,0,1,1,8.65-8.65A8.66,8.66,0,0,1,536,198.43Zm0-16.24a7.59,7.59,0,1,0,7.59,7.59A7.6,7.6,0,0,0,536,182.19Z"/><circle class="cls-2" cx="633.4" cy="189.78" r="8.12"/><path class="cls-1" d="M633.4,198.43a8.65,8.65,0,1,1,8.66-8.65A8.66,8.66,0,0,1,633.4,198.43Zm0-16.24a7.59,7.59,0,1,0,7.59,7.59A7.6,7.6,0,0,0,633.4,182.19Z"/><rect class="cls-2" x="527.84" y="84.96" width="108.51" height="85.63" rx="9" transform="translate(1164.2 255.54) rotate(180)"/><path class="cls-1" d="M626.76,171.12H537.44A10.14,10.14,0,0,1,527.31,161V94.55a10.14,10.14,0,0,1,10.13-10.13h89.32a10.15,10.15,0,0,1,10.13,10.13V161A10.14,10.14,0,0,1,626.76,171.12ZM537.44,85.49a9.06,9.06,0,0,0-9.06,9.06V161a9.06,9.06,0,0,0,9.06,9.06h89.32a9.06,9.06,0,0,0,9.06-9.06V94.55a9.06,9.06,0,0,0-9.06-9.06Z"/><path class="cls-28" d="M257.51,437.41c20.74,0,40.35-14.63,37.79-31.2,0,0,1.48-21.69-3.3-26.37-10.12-9.92-19.83-52.42-34.57-52.42H191.08c-14.74,0-24.45,42.5-34.57,52.42-4.78,4.68-3.3,26.37-3.3,26.37-2.56,16.57,17.06,31.2,37.79,31.2Z"/><path class="cls-29" d="M257.51,438H191c-12.53,0-25.31-5.46-32.56-13.92-4.71-5.49-6.7-11.66-5.77-17.85-.1-1.51-1.35-22,3.47-26.73,3.81-3.73,7.62-12.31,11.66-21.39,6.81-15.33,13.85-31.17,23.28-31.17h66.35c9.43,0,16.47,15.84,23.28,31.17,4,9.08,7.85,17.66,11.66,21.39,4.83,4.73,3.57,25.22,3.47,26.73.94,6.19-1.06,12.36-5.77,17.85C282.82,432.49,270,438,257.51,438ZM191.08,328c-8.73,0-15.94,16.22-22.3,30.53-4.08,9.18-7.94,17.85-11.89,21.73-4.56,4.46-3.16,25.74-3.15,25.95v.12c-.91,5.88,1,11.78,5.51,17,7.06,8.23,19.52,13.54,31.75,13.54h66.51c12.23,0,24.7-5.31,31.75-13.54,4.52-5.27,6.43-11.17,5.52-17v-.12c0-.21,1.41-21.49-3.14-25.95-4-3.88-7.81-12.55-11.89-21.73C273.38,344.18,266.17,328,257.43,328Z"/><path class="cls-2" d="M263.93,367.41l-77.53.49a10,10,0,0,1-9.09-14.3l4.64-9.71a17.51,17.51,0,0,1,15.6-9.94l55.65-.5A17.35,17.35,0,0,1,269,343.31l4.31,9A10.53,10.53,0,0,1,263.93,367.41Z"/><path class="cls-1" d="M186.32,368.44a10.53,10.53,0,0,1-9.49-15.07l4.64-9.71a17.94,17.94,0,0,1,16.07-10.25l55.65-.49h.2a17.94,17.94,0,0,1,16.13,10.16l4.31,9a11.07,11.07,0,0,1-9.9,15.84h0l-77.52.5ZM253.39,334h-.18l-55.66.49a16.85,16.85,0,0,0-15.11,9.64l-4.65,9.71a9.46,9.46,0,0,0,8.61,13.54l77.53-.49h0a10,10,0,0,0,8.94-14.32l-4.31-9A16.87,16.87,0,0,0,253.39,334Z"/><rect class="cls-2" x="191.82" y="389.17" width="68.01" height="21.01" rx="5.41"/><path class="cls-1" d="M252.32,410.72h-53a8.05,8.05,0,0,1-8-8v-6a8.06,8.06,0,0,1,8-8.05h53a8.06,8.06,0,0,1,8.05,8.05v6A8.06,8.06,0,0,1,252.32,410.72Zm-53-21a7,7,0,0,0-7,7v6a7,7,0,0,0,7,7h53a7,7,0,0,0,7-7v-6a7,7,0,0,0-7-7Z"/><rect class="cls-30" x="177.8" y="419.34" width="93.85" height="8.48" rx="2.18"/><path class="cls-31" d="M267.41,428.35H182a4.77,4.77,0,0,1,0-9.54h85.38a4.77,4.77,0,0,1,0,9.54ZM182,419.87a3.71,3.71,0,0,0,0,7.41h85.38a3.71,3.71,0,0,0,0-7.41Z"/><rect class="cls-2" x="165.98" y="384.26" width="15.5" height="14.03" rx="3.61"/><path class="cls-1" d="M174.47,398.82H173a7.55,7.55,0,1,1,0-15.09h1.47a7.55,7.55,0,1,1,0,15.09Zm-1.47-14a6.48,6.48,0,0,0,0,13h1.47a6.48,6.48,0,0,0,0-13Z"/><rect class="cls-2" x="268.69" y="384.26" width="15.5" height="14.03" rx="3.61"/><path class="cls-1" d="M277.18,398.82h-1.47a7.55,7.55,0,1,1,0-15.09h1.47a7.55,7.55,0,1,1,0,15.09Zm-1.47-14a6.48,6.48,0,1,0,0,13h1.47a6.48,6.48,0,1,0,0-13Z"/><polygon class="cls-32" points="554.32 417.78 511.83 463.6 543.79 463.26 554.32 417.78"/><path class="cls-33" d="M510.65,464.12,555.25,416l-11,47.74Zm42.74-44.59L513,463.08l30.39-.32Z"/><polygon class="cls-34" points="604.24 417.38 646.73 463.2 614.76 462.87 604.24 417.38"/><path class="cls-35" d="M647.91,463.72l-33.55-.35-11.05-47.74Zm-32.74-1.36,30.38.32-40.39-43.55Z"/><path class="cls-36" d="M580.66,440.5c-30.8,0-62.56-11-62.56-26.39V317.32c0-6.85,6.48-12.4,14.46-12.4h94.49c8,0,14.45,5.55,14.45,12.4v96.79C641.5,428.13,608.72,440.5,580.66,440.5Z"/><path class="cls-37" d="M580.66,441c-30.46,0-63.07-10.81-63.07-26.9V317.32c0-7.12,6.72-12.91,15-12.91h94.49c8.25,0,15,5.79,15,12.91v96.79C642,428.6,608.27,441,580.66,441Zm-48.1-135.58c-7.69,0-13.95,5.34-13.95,11.89v96.79c0,15.26,32.7,25.89,62,25.89,27.16,0,60.33-11.95,60.33-25.89V317.32c0-6.55-6.25-11.89-13.94-11.89Z"/><path class="cls-2" d="M605.36,328.42H554.59a7.75,7.75,0,0,1-7.76-7.75v1.55a7.75,7.75,0,0,1,7.76-7.75h50.77a7.75,7.75,0,0,1,7.75,7.75v-1.55A7.75,7.75,0,0,1,605.36,328.42Z"/><path class="cls-1" d="M605.36,328.93H554.59a8.27,8.27,0,0,1-8.12-6.71h-.15v-1.55h.15a8.27,8.27,0,0,1,8.12-6.71h50.77a8.28,8.28,0,0,1,8.12,6.71h.14v1.55h-.14A8.28,8.28,0,0,1,605.36,328.93Zm-58-7.49a7.26,7.26,0,0,0,7.21,6.47h50.77a6.51,6.51,0,1,0,0-12.94H554.59A7.27,7.27,0,0,0,547.38,321.44Z"/><path class="cls-38" d="M599.47,461.05H560.72c-3.27,0-5.92-1.82-5.92-4.07v.82c0-2.25,2.65-4.07,5.92-4.07h38.75c3.27,0,5.92,1.82,5.92,4.07V457C605.39,459.23,602.74,461.05,599.47,461.05Z"/><path class="cls-39" d="M599.47,461.56H560.72c-3.15,0-5.78-1.62-6.33-3.76h-.1V457h.1c.55-2.14,3.18-3.76,6.33-3.76h38.75c3.16,0,5.79,1.62,6.33,3.76h.1v.82h-.1C605.26,459.94,602.63,461.56,599.47,461.56Zm-44.13-4.17c.31,1.77,2.61,3.15,5.38,3.15h38.75c2.78,0,5.07-1.38,5.38-3.15-.31-1.77-2.6-3.16-5.38-3.16H560.72C558,454.23,555.65,455.62,555.34,457.39Z"/><path class="cls-40" d="M595.64,449.07H565.76a4.34,4.34,0,0,1-4.57-4.07v.81a4.34,4.34,0,0,1,4.57-4.07h29.88a4.34,4.34,0,0,1,4.56,4.07V445A4.33,4.33,0,0,1,595.64,449.07Z"/><path class="cls-41" d="M595.64,449.58H565.76a5,5,0,0,1-5-3.77h-.08V445h.08a5,5,0,0,1,5-3.77h29.88a5,5,0,0,1,5,3.77h.08v.81h-.08A5,5,0,0,1,595.64,449.58Zm-33.91-4.17a3.91,3.91,0,0,0,4,3.15h29.88a3.25,3.25,0,1,0,0-6.31H565.76A3.91,3.91,0,0,0,561.73,445.41Z"/><circle class="cls-2" cx="545.55" cy="408.5" r="7.76"/><path class="cls-1" d="M545.55,416.76a8.27,8.27,0,1,1,8.27-8.26A8.27,8.27,0,0,1,545.55,416.76Zm0-15.51a7.25,7.25,0,1,0,7.25,7.25A7.26,7.26,0,0,0,545.55,401.25Z"/><circle class="cls-2" cx="614.46" cy="408.5" r="7.76"/><path class="cls-1" d="M614.46,416.76a8.27,8.27,0,1,1,8.27-8.26A8.28,8.28,0,0,1,614.46,416.76Zm0-15.51a7.25,7.25,0,1,0,7.25,7.25A7.26,7.26,0,0,0,614.46,401.25Z"/><rect class="cls-2" x="527.27" y="334.8" width="103.65" height="59.45" rx="9" transform="translate(1158.19 729.04) rotate(180)"/><path class="cls-1" d="M621.76,394.75H536.44a9.69,9.69,0,0,1-9.68-9.67V344a9.69,9.69,0,0,1,9.68-9.67h85.32a9.68,9.68,0,0,1,9.67,9.67v41.12A9.68,9.68,0,0,1,621.76,394.75Zm-85.32-59.44a8.66,8.66,0,0,0-8.66,8.65v41.12a8.66,8.66,0,0,0,8.66,8.65h85.32a8.67,8.67,0,0,0,8.66-8.65V344a8.67,8.67,0,0,0-8.66-8.65Z"/></svg>