<svg id="Layer_1" data-name="Layer 1" xmlns="http://www.w3.org/2000/svg" xmlns:xlink="http://www.w3.org/1999/xlink" viewBox="0 0 251.04 246.96"><defs><style>.cls-1{fill:none;}.cls-2{clip-path:url(#clip-path);}.cls-3{fill:#fff;}.cls-4{fill:#ac2100;}</style><clipPath id="clip-path" transform="translate(-23.48 -22.85)"><circle class="cls-1" cx="146.84" cy="146.36" r="122.77"/></clipPath></defs><g class="cls-2"><image width="3175" height="3175" transform="translate(0) scale(0.08)" xlink:href="b%26w_me.jpg"/></g><path class="cls-3" d="M171.22,178.3l10.46,27.41v26.4a25.42,25.42,0,0,0,25.41,25.42h43.85a22.92,22.92,0,0,0,22.92-22.92v-16.7a24.66,24.66,0,0,0-24.66-24.66H193.39Z" transform="translate(-23.48 -22.85)"/><path d="M250.94,258.18H207.09A26.09,26.09,0,0,1,181,232.11V205.83l-11.15-29.22,23.71,16H249.2a25.34,25.34,0,0,1,25.32,25.31v16.7A23.61,23.61,0,0,1,250.94,258.18ZM172.56,180l9.77,25.6v26.52a24.79,24.79,0,0,0,24.76,24.77h43.85a22.29,22.29,0,0,0,22.27-22.27v-16.7a24,24,0,0,0-24-24h-56Z" transform="translate(-23.48 -22.85)"/><path class="cls-4" d="M228.5,228.57v14.14h-4.56V228.83c0-4.08-2.51-6.7-5.91-6.7s-7.49,2-7.49,7.33v13.25H206V205h4.56v17c1.46-3,5.44-4.34,8.11-4.34C224.73,217.63,228.55,221.71,228.5,228.57Z" transform="translate(-23.48 -22.85)"/><path class="cls-4" d="M234.1,209.25a3.23,3.23,0,1,1,3.19,3A3.11,3.11,0,0,1,234.1,209.25Zm.94,33.46V218.26h4.56v24.45Z" transform="translate(-23.48 -22.85)"/><path class="cls-4" d="M246,240.2a3.24,3.24,0,0,1,3.3-3.25,3.3,3.3,0,0,1,3.41,3.25,3.25,3.25,0,0,1-3.41,3.14A3.19,3.19,0,0,1,246,240.2Zm1.58-7.91-.48-25.66h4.56l-.47,25.66Z" transform="translate(-23.48 -22.85)"/></svg>