<?xml version="1.0" encoding="utf-8"?>
<!-- Generator: Adobe Illustrator 25.2.3, SVG Export Plug-In . SVG Version: 6.00 Build 0)  -->
<svg version="1.1" id="Layer_1" xmlns="http://www.w3.org/2000/svg" xmlns:xlink="http://www.w3.org/1999/xlink" x="0px" y="0px"
	 viewBox="0 0 288 288" style="enable-background:new 0 0 288 288;" xml:space="preserve">
<style type="text/css">
	.st0{fill:#FFFFFF;stroke:#016B6B;stroke-width:3;stroke-miterlimit:10;}
	.st1{fill:#00FFFF;}
</style>
<path class="st0" d="M13.6,26.2l24.1,63.1v60.8c0,32.3,26.2,58.5,58.5,58.5h101c29.2,0,52.8-23.6,52.8-52.8v-38.5
	c0-31.4-25.4-56.8-56.8-56.8H64.7L13.6,26.2z"/>
<g>
	<path class="st1" d="M145.6,142.1v32.6h-10.5v-32c0-9.4-5.8-15.4-13.6-15.4c-7.8,0-17.3,4.7-17.3,16.9v30.5H93.7v-87h10.5v39.2
		c3.4-6.9,12.5-10,18.7-10C136.9,116.8,145.7,126.3,145.6,142.1z"/>
	<path class="st1" d="M158.5,97.5c0-4,3.4-7,7.4-7c4.1,0,7.5,3,7.5,7c0,4-3.4,7-7.5,7C161.9,104.5,158.5,101.5,158.5,97.5z
		 M160.7,174.6v-56.3h10.5v56.3H160.7z"/>
	<path class="st1" d="M185.9,168.8c0-4.3,3.5-7.5,7.6-7.5c4.2,0,7.8,3.1,7.8,7.5c0,4.2-3.6,7.2-7.8,7.2
		C189.4,176.1,185.9,173.1,185.9,168.8z M189.5,150.6l-1.1-59.1h10.5l-1.1,59.1H189.5z"/>
</g>
</svg>
