<svg id="Layer_1" data-name="Layer 1" xmlns="http://www.w3.org/2000/svg" viewBox="0 0 240.99 187.78"><defs><style>.cls-1{fill:#fff;stroke:#016b6b;stroke-miterlimit:10;stroke-width:3px;}.cls-2{fill:#6fccdd;}</style></defs><path class="cls-1" d="M13.6,26.2,37.7,89.3v60.8a58.51,58.51,0,0,0,58.5,58.5h101A52.75,52.75,0,0,0,250,155.8V117.3a56.76,56.76,0,0,0-56.8-56.8H64.7Z" transform="translate(-10.51 -22.32)"/><path class="cls-2" d="M145.6,142.1v32.6H135.1v-32c0-9.4-5.8-15.4-13.6-15.4s-17.3,4.7-17.3,16.9v30.5H93.7v-87h10.5v39.2c3.4-6.9,12.5-10,18.7-10C136.9,116.8,145.7,126.3,145.6,142.1Z" transform="translate(-10.51 -22.32)"/><path class="cls-2" d="M158.5,97.5a7.46,7.46,0,1,1,7.4,7A7.18,7.18,0,0,1,158.5,97.5Zm2.2,77.1V118.3h10.5v56.3Z" transform="translate(-10.51 -22.32)"/><path class="cls-2" d="M185.9,168.8a7.7,7.7,0,0,1,15.4,0c0,4.2-3.6,7.2-7.8,7.2A7.2,7.2,0,0,1,185.9,168.8Zm3.6-18.2-1.1-59.1h10.5l-1.1,59.1Z" transform="translate(-10.51 -22.32)"/></svg>