<?xml version="1.0" encoding="utf-8"?>
<!-- Generator: Adobe Illustrator 25.2.1, SVG Export Plug-In . SVG Version: 6.00 Build 0)  -->
<svg version="1.1" id="Layer_1" xmlns="http://www.w3.org/2000/svg" xmlns:xlink="http://www.w3.org/1999/xlink" x="0px" y="0px"
	 viewBox="0 0 288 288" style="enable-background:new 0 0 288 288;" xml:space="preserve">
<style type="text/css">
	.st0{fill:#00FFFF;}
	.st1{fill:#C1272D;}
</style>
<g>
	<path d="M54.6,200.5h35c1.2,23.7,23.7,47.8,59.5,47.8c34.6,0,54-22.5,54-46.2c0-26-23.7-37.7-46.2-43.5l-34.6-8.6
		c-56.7-13.6-65.7-47-65.7-68.8c0-46.2,41.6-77.3,88.2-77.3c47,0,84.7,29.9,84.7,77.7h-35c0-26.8-22.2-45.1-50.9-45.1
		c-26.8,0-51.7,17.9-51.7,44.3c0,9.3,3.1,28,38.9,37.3l35,9.3c45.5,12,72.7,35.4,72.7,73.4c0,41.6-33.8,80-89.4,80
		C92.7,281,55,242.1,54.6,200.5z"/>
</g>
<g>
	<path class="st0" d="M149,248.3c34.6,0,54-22.5,54-46.2c0-26-31.9-39.7-54.4-45.5l0-33.6c67.1,14.9,89.8,39.9,89.8,78
		c0,41.6-33.8,80-89.4,80V248.3z"/>
</g>
<g>
	<path class="st1" d="M148.6,122.9c67.1,14.9,89.8,39.9,89.8,78c0,41.6-33.8,80-89.4,80L148.6,122.9z"/>
</g>
</svg>
