<svg id="S-1_copy_2" data-name="S-1 copy 2" xmlns="http://www.w3.org/2000/svg" viewBox="0 0 304.92 304.92"><defs><style>.cls-1{fill:#231f20;}</style></defs><path class="cls-1" d="M106.67,286.88l-.42,0a2.76,2.76,0,0,1-2.32-3.13c.18-1.24,4.86-29.83,46.72-45.45a80.1,80.1,0,0,1-9.93-25.12c-3.66-17.13-2-35.23,4.68-49.66,7.58-16.46,25.07-33.07,42.4-36.55,19.94-4,35,3.83,41.25,14.89a43.23,43.23,0,0,1,5.43,20.93c.05,0,1.17-1.24,1.21-1.21,7.22-11.18,6.78-11.42,12-22-7.55-26.82-6.92-55.78.78-64.64A14.48,14.48,0,0,1,262,69.74c4.51.66,7.93,4.53,9.67,8.69C276,88.9,270,109.84,258.74,133c1.54,5.42,3.16,10.94,4.78,16.43,4.83,16.4,9.82,33.36,13.25,49.36,6.1,28.48-3.95,47.8-13.45,59-11.54,13.59-25.91,20-31.9,21.51-20.87,5.22-41.3,1.35-57.53-10.88a69.42,69.42,0,0,1-20.68-25.21c-20.16,7.4-30.93,18-36.46,25.65-6.21,8.62-7.34,15.61-7.35,15.67A2.78,2.78,0,0,1,106.67,286.88ZM172,259.56a60.33,60.33,0,0,0,5.26,4.45c14.87,11.21,34.15,16.44,52.86,9.93,16.79-5.84,39.13-30,33-64.27-2.82-15.9-8.51-49.29-13.44-62.29-4.92,9.48-5.19,12.09-11.26,21.48l1.45,1.33a58,58,0,0,1,16.54,29.63c3.16,14.22,0,30.9-8.32,43.54a50.75,50.75,0,0,1-33.52,22.41,73,73,0,0,1-13.75,1.36A56.55,56.55,0,0,1,172,259.56ZM159.35,241c11.64,14.89,29.91,24,54.17,19.32,15.93-3.08,24-12.51,28.62-20.09,6.57-10.78,6.84-26.54,5.52-35.22-1.71-11.27-6.57-21.72-14.19-28.64-2.83,4.23-3.82,5.47-6.76,9.48C206,214.18,185.05,231.34,159.35,241Zm17.1-70.94c-2.91,1.69-6.19,3.45-8.67,5.79-10.8,10.14-16.26,23.88-15.7,40.64a59.55,59.55,0,0,0,4.2,19.75c22.11-8.09,40.58-21.92,58.55-44a38.48,38.48,0,0,1-10.67,1.55h-.38c-13.7,0-21.62-7.49-26.28-20.53C177,172,177,171.46,176.45,170.08Zm19.41-33.91a49.6,49.6,0,0,0-11.32,1.37c-33.61,7.87-44.88,44.24-38.42,74.45.13.59.26,1.18.4,1.77.12-17.47,6.64-33.46,18.12-44.25a49.6,49.6,0,0,1,12.19-8.44c1.34-9.09,6.67-18.08,17.44-22.21,1.42-.54,4.51-.09,5.09,1.32,1.14,2.77-.21,5-1.63,5.54-7.27,2.79-12.94,6.69-14.71,12.8a61.25,61.25,0,0,1,25.55-2.6,52.55,52.55,0,0,1,19.54,5.81,30,30,0,0,0-6.3-14.06C215.7,140.14,206.57,136.17,195.86,136.17Zm-12.84,31c-2.66,1.09-2,.45-1.17,3.53,2.42,8.79,8.69,17.55,21.9,17.55h.34c10.67-.12,17.69-5,22.22-12.3,1.22-2,1.85-2.91,1.85-4.29A51.06,51.06,0,0,0,205.88,164,46,46,0,0,0,183,167.19ZM258.47,75c-2.68,0-4.53,2.07-5.86,3.6-5.42,6.23-1.92,24.77,3.86,46.24,9.07-20,13.24-36.67,10.07-44.27-1-2.37-2.78-5-5.38-5.36A18.85,18.85,0,0,0,258.47,75Z" transform="translate(-56.78 -42.38)"/><path class="cls-1" d="M209.24,347.3c-84.07,0-152.46-68.39-152.46-152.46S125.17,42.38,209.24,42.38,361.7,110.77,361.7,194.84,293.31,347.3,209.24,347.3Zm0-295.92c-79.1,0-143.46,64.36-143.46,143.46S130.14,338.3,209.24,338.3,352.7,273.94,352.7,194.84,288.34,51.38,209.24,51.38Z" transform="translate(-56.78 -42.38)"/></svg>