<svg id="Layer_1" data-name="Layer 1" xmlns="http://www.w3.org/2000/svg" viewBox="0 0 734.15 107.83"><defs><style>.cls-1{fill:#73c5d8;}.cls-2{fill:#fff;}</style></defs><path class="cls-1" d="M130.75,92.49l25.76,6.59v8L129.89,94.26C128.78,93.47,129,92.33,130.75,92.49Z" transform="translate(-28.69 -64.68)"/><path class="cls-2" d="M156.86,107.63,129.74,94.57c-.73-.51-1-1.14-.83-1.68.09-.27.47-.88,1.87-.75h.06l26,6.66ZM130.42,92.82c-.55,0-.8.16-.86.31s.08.52.54.84l26.06,12.55V99.35l-25.47-6.51Z" transform="translate(-28.69 -64.68)"/><path class="cls-1" d="M190.38,92.49l-25.77,6.59v8l26.62-12.82C192.34,93.47,192.18,92.33,190.38,92.49Z" transform="translate(-28.69 -64.68)"/><path class="cls-2" d="M164.27,107.63V98.81l26.07-6.67c1.4-.13,1.78.48,1.88.75.2.54-.1,1.17-.79,1.65Zm.69-8.28v7.17l26.12-12.58c.41-.29.55-.63.49-.81s-.41-.36-1.13-.29Z" transform="translate(-28.69 -64.68)"/><path class="cls-1" d="M157.14,99.08s1.12-13,2.9-13,3.79,12.44,3.79,12.44Z" transform="translate(-28.69 -64.68)"/><path class="cls-2" d="M156.76,99.46l0-.41c.35-4,1.35-13.36,3.25-13.36s3.52,8.91,4.13,12.74l.06.37ZM160,86.39c-.76,0-1.92,5.7-2.52,12.3l5.9-.52C162.36,91.75,160.83,86.39,160,86.39Z" transform="translate(-28.69 -64.68)"/><path class="cls-1" d="M32.47,92l113.62,20.64v25.45l-115-40.8C27.67,95.45,28.78,91.51,32.47,92Z" transform="translate(-28.69 -64.68)"/><path class="cls-2" d="M146.44,138.59,31,97.62c-2.07-1.11-2.57-2.84-2.17-4.07.45-1.39,1.9-2.14,3.7-1.9h0l113.91,20.69ZM31.87,92.31a2.33,2.33,0,0,0-2.39,1.45c-.31,1,.13,2.33,1.8,3.22L145.74,137.6V112.93L32.42,92.34Z" transform="translate(-28.69 -64.68)"/><path class="cls-1" d="M290.21,92,176.6,112.64v25.45l115-40.8C295,95.45,293.91,91.51,290.21,92Z" transform="translate(-28.69 -64.68)"/><path class="cls-2" d="M176.25,138.59V112.35l113.92-20.7c1.8-.24,3.25.51,3.7,1.9.4,1.23-.11,3-2.13,4Zm.7-25.66V137.6L291.46,97c1.62-.87,2.05-2.24,1.74-3.2s-1.49-1.6-2.93-1.42Z" transform="translate(-28.69 -64.68)"/><circle class="cls-1" cx="176.94" cy="68.43" r="11.76"/><path class="cls-2" d="M205.63,145.22a12.12,12.12,0,1,1,12.11-12.12A12.14,12.14,0,0,1,205.63,145.22Zm0-23.53A11.42,11.42,0,1,0,217,133.1,11.43,11.43,0,0,0,205.63,121.69Z" transform="translate(-28.69 -64.68)"/><circle class="cls-2" cx="176.94" cy="68.78" r="8.91"/><circle class="cls-1" cx="88.88" cy="68.43" r="11.76"/><path class="cls-2" d="M117.57,145.22a12.12,12.12,0,1,1,12.11-12.12A12.14,12.14,0,0,1,117.57,145.22Zm0-23.53A11.42,11.42,0,1,0,129,133.1,11.43,11.43,0,0,0,117.57,121.69Z" transform="translate(-28.69 -64.68)"/><circle class="cls-2" cx="88.88" cy="68.78" r="8.91"/><circle class="cls-1" cx="132.19" cy="54.34" r="24.78"/><path class="cls-2" d="M160.88,144.15A25.13,25.13,0,1,1,186,119,25.16,25.16,0,0,1,160.88,144.15Zm0-49.56A24.43,24.43,0,1,0,185.31,119,24.45,24.45,0,0,0,160.88,94.59Z" transform="translate(-28.69 -64.68)"/><rect class="cls-1" x="330.52" y="75.82" width="9.68" height="30" rx="3.8"/><path class="cls-2" d="M364.05,170.84a5.18,5.18,0,0,1-5.18-5.18V145.34a5.19,5.19,0,1,1,10.37,0v20.32A5.19,5.19,0,0,1,364.05,170.84Zm0-30a4.5,4.5,0,0,0-4.49,4.49v20.32a4.49,4.49,0,0,0,9,0V145.34A4.49,4.49,0,0,0,364.05,140.85Z" transform="translate(-28.69 -64.68)"/><rect class="cls-1" x="388.58" y="75.82" width="9.68" height="30" rx="3.8"/><path class="cls-2" d="M422.11,170.84a5.19,5.19,0,0,1-5.19-5.18V145.34a5.19,5.19,0,0,1,10.38,0v20.32A5.19,5.19,0,0,1,422.11,170.84Zm0-30a4.49,4.49,0,0,0-4.49,4.49v20.32a4.49,4.49,0,0,0,9,0V145.34A4.5,4.5,0,0,0,422.11,140.85Z" transform="translate(-28.69 -64.68)"/><rect class="cls-1" x="492.33" y="68.68" width="14.47" height="30" rx="5.68"/><path class="cls-2" d="M530.65,163.7h-4.79a5.19,5.19,0,0,1-5.18-5.19V138.19a5.18,5.18,0,0,1,5.18-5.18h4.79a5.19,5.19,0,0,1,5.19,5.18v20.32A5.2,5.2,0,0,1,530.65,163.7Zm-4.79-30a4.5,4.5,0,0,0-4.49,4.49v20.32a4.5,4.5,0,0,0,4.49,4.49h4.79a4.49,4.49,0,0,0,4.49-4.49V138.19a4.5,4.5,0,0,0-4.49-4.49Z" transform="translate(-28.69 -64.68)"/><rect class="cls-1" x="561.48" y="68.68" width="14.47" height="30" rx="5.68"/><path class="cls-2" d="M599.8,163.7H595a5.2,5.2,0,0,1-5.19-5.19V138.19A5.19,5.19,0,0,1,595,133h4.79a5.19,5.19,0,0,1,5.19,5.18v20.32A5.2,5.2,0,0,1,599.8,163.7Zm-4.79-30a4.5,4.5,0,0,0-4.49,4.49v20.32A4.5,4.5,0,0,0,595,163h4.79a4.49,4.49,0,0,0,4.49-4.49V138.19a4.5,4.5,0,0,0-4.49-4.49Z" transform="translate(-28.69 -64.68)"/><path class="cls-2" d="M176.77,114.83a3.86,3.86,0,0,1-1.3,1.69c-1.86,1.36-6.54,4.1-14.05,4.1-9.87,0-13.5-3-14.58-4.3a3.56,3.56,0,0,1-.53-.85l-.05-.1a3.93,3.93,0,0,1,4.21-5.54,60.56,60.56,0,0,0,11.66.81,72.26,72.26,0,0,0,10.29-1.15,3.93,3.93,0,0,1,4.35,5.34Z" transform="translate(-28.69 -64.68)"/><path class="cls-1" d="M161.42,121c-10,0-13.71-3.09-14.84-4.42a4,4,0,0,1-.59-.93l-.05-.1a4.29,4.29,0,0,1,4.59-6,59,59,0,0,0,11.59.81,71.31,71.31,0,0,0,10.23-1.14,4.27,4.27,0,0,1,4.74,5.81h0a4.17,4.17,0,0,1-1.41,1.84A24.24,24.24,0,0,1,161.42,121Zm-11.61-10.85a3.59,3.59,0,0,0-3.23,5.11l0,.1a3.21,3.21,0,0,0,.49.76c1.07,1.26,4.62,4.18,14.31,4.18a23.54,23.54,0,0,0,13.85-4,3.55,3.55,0,0,0,1.18-1.54h0a3.58,3.58,0,0,0-4-4.86A73,73,0,0,1,162.14,111a60.51,60.51,0,0,1-11.73-.82A4,4,0,0,0,149.81,110.12Z" transform="translate(-28.69 -64.68)"/><rect class="cls-1" x="310.2" y="14.86" width="9.68" height="30" rx="3.8"/><path class="cls-2" d="M343.73,109.88a5.18,5.18,0,0,1-5.18-5.18V84.38a5.19,5.19,0,1,1,10.37,0V104.7A5.19,5.19,0,0,1,343.73,109.88Zm0-30a4.49,4.49,0,0,0-4.48,4.49V104.7a4.49,4.49,0,1,0,9,0V84.38A4.49,4.49,0,0,0,343.73,79.89Z" transform="translate(-28.69 -64.68)"/><rect class="cls-1" x="406.48" y="14.86" width="9.68" height="30" rx="3.8"/><path class="cls-2" d="M440,109.88a5.19,5.19,0,0,1-5.19-5.18V84.38a5.19,5.19,0,0,1,10.38,0V104.7A5.19,5.19,0,0,1,440,109.88Zm0-30a4.5,4.5,0,0,0-4.49,4.49V104.7a4.49,4.49,0,1,0,9,0V84.38A4.49,4.49,0,0,0,440,79.89Z" transform="translate(-28.69 -64.68)"/><rect class="cls-1" x="484.45" y="40.71" width="9.68" height="14.21" rx="3.8"/><path class="cls-2" d="M518,119.94a5.2,5.2,0,0,1-5.19-5.19v-4.53a5.19,5.19,0,1,1,10.38,0v4.53A5.2,5.2,0,0,1,518,119.94Zm0-14.21a4.5,4.5,0,0,0-4.49,4.49v4.53a4.49,4.49,0,0,0,9,0v-4.53A4.5,4.5,0,0,0,518,105.73Z" transform="translate(-28.69 -64.68)"/><rect class="cls-1" x="573.57" y="40.71" width="9.68" height="14.21" rx="3.8"/><path class="cls-2" d="M607.1,119.94a5.2,5.2,0,0,1-5.19-5.19v-4.53a5.19,5.19,0,1,1,10.38,0v4.53A5.2,5.2,0,0,1,607.1,119.94Zm0-14.21a4.5,4.5,0,0,0-4.49,4.49v4.53a4.49,4.49,0,0,0,9,0v-4.53A4.5,4.5,0,0,0,607.1,105.73Z" transform="translate(-28.69 -64.68)"/><rect class="cls-1" x="320.85" y="0.35" width="84.67" height="97.24" rx="14.2"/><path class="cls-2" d="M424.29,162.62H359.46a10.29,10.29,0,0,1-10.27-10.27V74.94a10.28,10.28,0,0,1,10.27-10.26h64.83a10.27,10.27,0,0,1,10.26,10.26v77.41A10.28,10.28,0,0,1,424.29,162.62ZM359.46,65.37a9.58,9.58,0,0,0-9.57,9.57v77.41a9.58,9.58,0,0,0,9.57,9.57h64.83a9.58,9.58,0,0,0,9.57-9.57V74.94a9.59,9.59,0,0,0-9.57-9.57Z" transform="translate(-28.69 -64.68)"/><rect class="cls-1" x="342.62" y="76.79" width="45.48" height="10.64" rx="4.18"/><path class="cls-2" d="M411.47,152.46H376.63a5.67,5.67,0,0,1,0-11.34h34.84a5.67,5.67,0,0,1,0,11.34Zm-34.84-10.64a5,5,0,1,0,0,9.94h34.84a5,5,0,0,0,0-9.94Z" transform="translate(-28.69 -64.68)"/><circle class="cls-2" cx="332.46" cy="82.11" r="5.32"/><path class="cls-1" d="M361.15,152.46a5.67,5.67,0,1,1,5.67-5.67A5.67,5.67,0,0,1,361.15,152.46Zm0-10.64a5,5,0,1,0,5,5A5,5,0,0,0,361.15,141.82Z" transform="translate(-28.69 -64.68)"/><circle class="cls-2" cx="396.32" cy="82.11" r="5.32"/><path class="cls-1" d="M425,152.46a5.67,5.67,0,1,1,5.67-5.67A5.68,5.68,0,0,1,425,152.46Zm0-10.64a5,5,0,1,0,5,5A5,5,0,0,0,425,141.82Z" transform="translate(-28.69 -64.68)"/><rect class="cls-2" x="355.83" y="78.09" width="71.12" height="56.12" rx="9" transform="translate(754.09 147.62) rotate(180)"/><path class="cls-1" d="M420.66,134.56H362.12a6.65,6.65,0,0,1-6.64-6.64V84.38a6.65,6.65,0,0,1,6.64-6.64h58.54a6.65,6.65,0,0,1,6.64,6.64v43.54A6.65,6.65,0,0,1,420.66,134.56ZM362.12,78.44a5.94,5.94,0,0,0-5.94,5.94v43.54a6,6,0,0,0,5.94,5.94h58.54a6,6,0,0,0,5.94-5.94V84.38a6,6,0,0,0-5.94-5.94Z" transform="translate(-28.69 -64.68)"/><path class="cls-1" d="M584.74,156.44c13.59,0,26.44-9.59,24.77-20.45,0,0,1-14.21-2.17-17.28-6.63-6.5-13-34.35-22.66-34.35H541.2c-9.66,0-16,27.85-22.66,34.35-3.13,3.07-2.16,17.28-2.16,17.28-1.68,10.86,11.18,20.45,24.77,20.45Z" transform="translate(-28.69 -64.68)"/><path class="cls-2" d="M584.74,156.79H541.15c-8.21,0-16.59-3.58-21.34-9.12-3.09-3.6-4.4-7.64-3.78-11.69-.07-1-.89-14.43,2.27-17.52,2.5-2.45,5-8.07,7.64-14C530.41,94.39,535,84,541.2,84h43.48c6.18,0,10.8,10.38,15.26,20.42,2.65,6,5.15,11.58,7.65,14,3.16,3.09,2.33,16.53,2.27,17.52.61,4.05-.7,8.09-3.78,11.69C601.33,153.21,593,156.79,584.74,156.79ZM541.2,84.71c-5.73,0-10.45,10.63-14.62,20-2.67,6-5.2,11.7-7.79,14.24-3,2.92-2.07,16.87-2.06,17v.08c-.59,3.85.66,7.72,3.62,11.17,4.62,5.39,12.79,8.88,20.81,8.88h43.59c8,0,16.18-3.49,20.81-8.88,3-3.45,4.21-7.32,3.61-11.17V136c0-.14.92-14.09-2.06-17-2.6-2.54-5.12-8.23-7.8-14.24-4.16-9.38-8.89-20-14.62-20Z" transform="translate(-28.69 -64.68)"/><path class="cls-2" d="M588.94,110.57l-50.81.32a6.55,6.55,0,0,1-6-9.38l3-6.36a11.47,11.47,0,0,1,10.22-6.52l36.47-.32a11.37,11.37,0,0,1,10.38,6.46l2.83,5.91A6.91,6.91,0,0,1,588.94,110.57Z" transform="translate(-28.69 -64.68)"/><path class="cls-1" d="M538.08,111.24a6.9,6.9,0,0,1-6.22-9.88l3-6.36a11.76,11.76,0,0,1,10.53-6.72L581.91,88H582a11.75,11.75,0,0,1,10.57,6.66l2.83,5.91A7.25,7.25,0,0,1,589,110.91h0l-50.81.33Zm44-22.58h-.12L545.44,89a11.07,11.07,0,0,0-9.91,6.32l-3,6.37a6.17,6.17,0,0,0,.36,6,6.26,6.26,0,0,0,5.28,2.87l50.81-.32h0a6.55,6.55,0,0,0,5.86-9.39L592,94.92A11.07,11.07,0,0,0,582,88.66Z" transform="translate(-28.69 -64.68)"/><rect class="cls-2" x="512.99" y="60.15" width="44.58" height="13.77" rx="5.41"/><path class="cls-1" d="M581.34,139H546.61a5.27,5.27,0,0,1-5.27-5.27v-3.93a5.28,5.28,0,0,1,5.27-5.27h34.73a5.28,5.28,0,0,1,5.27,5.27v3.93A5.28,5.28,0,0,1,581.34,139Zm-34.73-13.77a4.58,4.58,0,0,0-4.58,4.57v3.93a4.58,4.58,0,0,0,4.58,4.57h34.73a4.58,4.58,0,0,0,4.57-4.57v-3.93a4.58,4.58,0,0,0-4.57-4.57Z" transform="translate(-28.69 -64.68)"/><rect class="cls-1" x="503.8" y="79.92" width="61.51" height="5.56" rx="2.18"/><path class="cls-2" d="M591.22,150.5h-56a3.13,3.13,0,1,1,0-6.25h56a3.13,3.13,0,1,1,0,6.25Zm-56-5.55a2.43,2.43,0,1,0,0,4.86h56a2.43,2.43,0,0,0,0-4.86Z" transform="translate(-28.69 -64.68)"/><rect class="cls-2" x="496.06" y="56.94" width="10.16" height="9.19" rx="3.61"/><path class="cls-1" d="M530.32,131.15h-1a4.95,4.95,0,1,1,0-9.89h1a4.95,4.95,0,0,1,0,9.89Zm-1-9.19a4.25,4.25,0,1,0,0,8.49h1a4.25,4.25,0,0,0,0-8.49Z" transform="translate(-28.69 -64.68)"/><rect class="cls-2" x="563.38" y="56.94" width="10.16" height="9.19" rx="3.61"/><path class="cls-1" d="M597.63,131.15h-1a4.95,4.95,0,0,1,0-9.89h1a4.95,4.95,0,1,1,0,9.89Zm-1-9.19a4.25,4.25,0,0,0,0,8.49h1a4.25,4.25,0,1,0,0-8.49Z" transform="translate(-28.69 -64.68)"/><polygon class="cls-1" points="672.81 77.46 644.96 107.49 665.91 107.27 672.81 77.46"/><path class="cls-2" d="M672.88,172.51,702.11,141l-7.24,31.29Zm28-29.23-26.47,28.54,19.92-.2Z" transform="translate(-28.69 -64.68)"/><polygon class="cls-1" points="705.52 77.2 733.37 107.23 712.42 107.01 705.52 77.2"/><path class="cls-2" d="M762.84,172.25l-22-.23-7.24-31.29Zm-21.46-.9,19.91.21L734.82,143Z" transform="translate(-28.69 -64.68)"/><path class="cls-1" d="M718.76,157c-20.18,0-41-7.23-41-17.3V76.3c0-4.49,4.24-8.13,9.47-8.13h61.93c5.23,0,9.47,3.64,9.47,8.13v63.43C758.64,148.92,737.16,157,718.76,157Z" transform="translate(-28.69 -64.68)"/><path class="cls-2" d="M718.76,157.36c-20,0-41.33-7.08-41.33-17.63V76.3c0-4.67,4.4-8.46,9.81-8.46h61.93c5.4,0,9.8,3.79,9.8,8.46v63.43C759,149.23,736.86,157.36,718.76,157.36ZM687.24,68.5c-5,0-9.14,3.5-9.14,7.8v63.43c0,10,21.43,17,40.66,17,17.8,0,39.55-7.83,39.55-17V76.3c0-4.3-4.1-7.8-9.14-7.8Z" transform="translate(-28.69 -64.68)"/><path class="cls-2" d="M735,83.57H701.68a5.08,5.08,0,0,1-5.09-5.08v1a5.08,5.08,0,0,1,5.09-5.08H735A5.08,5.08,0,0,1,740,79.51v-1A5.08,5.08,0,0,1,735,83.57Z" transform="translate(-28.69 -64.68)"/><path class="cls-1" d="M735,83.91H701.68a5.43,5.43,0,0,1-5.32-4.4h-.1v-1h.1a5.43,5.43,0,0,1,5.32-4.4H735a5.42,5.42,0,0,1,5.32,4.4h.1v1h-.1A5.42,5.42,0,0,1,735,83.91ZM697,79a4.75,4.75,0,0,0,4.72,4.24H735A4.75,4.75,0,0,0,739.67,79,4.75,4.75,0,0,0,735,74.76H701.68A4.75,4.75,0,0,0,697,79Z" transform="translate(-28.69 -64.68)"/><path class="cls-1" d="M731.1,170.5H705.7c-2.15,0-3.88-1.2-3.88-2.67v.53c0-1.47,1.73-2.67,3.88-2.67h25.4c2.14,0,3.88,1.2,3.88,2.67v-.53C735,169.3,733.24,170.5,731.1,170.5Z" transform="translate(-28.69 -64.68)"/><path class="cls-2" d="M731.1,170.83H705.7c-2.07,0-3.79-1.07-4.15-2.47h-.07v-.53h.07c.36-1.4,2.08-2.47,4.15-2.47h25.4c2.06,0,3.79,1.07,4.14,2.47h.07v.53h-.07C734.89,169.76,733.16,170.83,731.1,170.83Zm-28.93-2.73c.21,1.16,1.71,2.06,3.53,2.06h25.4c1.81,0,3.32-.9,3.52-2.06-.2-1.17-1.71-2.07-3.52-2.07H705.7C703.88,166,702.38,166.93,702.17,168.1Z" transform="translate(-28.69 -64.68)"/><path class="cls-1" d="M728.58,162.64H709a2.83,2.83,0,0,1-3-2.66v.53a2.84,2.84,0,0,1,3-2.67h19.58a2.85,2.85,0,0,1,3,2.67V160A2.84,2.84,0,0,1,728.58,162.64Z" transform="translate(-28.69 -64.68)"/><path class="cls-2" d="M728.58,163H709a3.28,3.28,0,0,1-3.28-2.47h-.05V160h.05a3.27,3.27,0,0,1,3.28-2.47h19.58a3.25,3.25,0,0,1,3.27,2.47h.06v.53h-.06A3.26,3.26,0,0,1,728.58,163Zm-22.22-2.74a2.55,2.55,0,0,0,2.64,2.07h19.58a2.13,2.13,0,1,0,0-4.13H709A2.55,2.55,0,0,0,706.36,160.24Z" transform="translate(-28.69 -64.68)"/><circle class="cls-2" cx="667.06" cy="71.38" r="5.08"/><path class="cls-1" d="M695.76,141.47a5.42,5.42,0,1,1,5.41-5.42A5.42,5.42,0,0,1,695.76,141.47Zm0-10.17a4.75,4.75,0,1,0,4.75,4.75A4.75,4.75,0,0,0,695.76,131.3Z" transform="translate(-28.69 -64.68)"/><circle class="cls-2" cx="712.23" cy="71.38" r="5.08"/><path class="cls-1" d="M740.92,141.47a5.42,5.42,0,1,1,5.41-5.42A5.42,5.42,0,0,1,740.92,141.47Zm0-10.17a4.75,4.75,0,1,0,4.75,4.75A4.75,4.75,0,0,0,740.92,131.3Z" transform="translate(-28.69 -64.68)"/><rect class="cls-2" x="683.77" y="87.75" width="67.93" height="38.96" rx="9" transform="translate(1406.79 149.79) rotate(180)"/><path class="cls-1" d="M745.7,127H689.78a6.34,6.34,0,0,1-6.34-6.34V93.76a6.34,6.34,0,0,1,6.34-6.34H745.7A6.34,6.34,0,0,1,752,93.76V120.7A6.34,6.34,0,0,1,745.7,127Zm-55.92-39a5.68,5.68,0,0,0-5.67,5.68V120.7a5.68,5.68,0,0,0,5.67,5.68H745.7a5.68,5.68,0,0,0,5.67-5.68V93.76a5.68,5.68,0,0,0-5.67-5.68Z" transform="translate(-28.69 -64.68)"/></svg>